<svg width="45" height="16" viewBox="0 0 45 16" fill="none" xmlns="http://www.w3.org/2000/svg">
<path d="M11.1715 1.01652V3.13088H6.63787V15.2478H4.52351V3.13088H0V1.01652H11.1715Z" fill="#3F3D56"/>
<path d="M19.5723 5.08259H21.6866V15.2478H19.5621L19.4808 13.7738C19.1826 14.2956 18.7794 14.7158 18.2711 15.0343C17.7629 15.3528 17.1631 15.5121 16.4719 15.5121C15.7264 15.5121 15.025 15.3732 14.3677 15.0953C13.7103 14.8107 13.1309 14.4176 12.6295 13.9161C12.1347 13.4147 11.7485 12.8386 11.4706 12.1881C11.1928 11.5307 11.0538 10.8259 11.0538 10.0737C11.0538 9.34858 11.1894 8.66752 11.4605 8.0305C11.7315 7.3867 12.1076 6.82423 12.5888 6.34308C13.0699 5.86193 13.6256 5.48581 14.2559 5.21474C14.8929 4.93689 15.574 4.79797 16.2991 4.79797C17.0378 4.79797 17.6883 4.96739 18.2508 5.30623C18.82 5.63829 19.291 6.06523 19.6638 6.58704L19.5723 5.08259ZM16.4211 13.4689C17.0174 13.4689 17.5392 13.3232 17.9865 13.0318C18.4338 12.7336 18.7794 12.3338 19.0234 11.8323C19.2741 11.3308 19.3995 10.7751 19.3995 10.1652C19.3995 9.5485 19.2741 8.98941 19.0234 8.48793C18.7726 7.98645 18.4236 7.59001 17.9763 7.2986C17.5358 7.00043 17.0174 6.85134 16.4211 6.85134C15.8315 6.85134 15.2927 7.00043 14.8048 7.2986C14.3169 7.59678 13.9306 7.99661 13.646 8.4981C13.3613 8.99958 13.219 9.55528 13.219 10.1652C13.219 10.7819 13.3647 11.341 13.6561 11.8424C13.9543 12.3372 14.344 12.7336 14.8251 13.0318C15.3131 13.3232 15.845 13.4689 16.4211 13.4689Z" fill="#3F3D56"/>
<path d="M26.7646 15.4409C26.2293 15.407 25.7074 15.2986 25.1992 15.1156C24.6909 14.9327 24.2437 14.6853 23.8574 14.3736C23.4779 14.0551 23.1933 13.6823 23.0035 13.2554L24.8027 12.4829C24.8908 12.6658 25.0433 12.8454 25.2602 13.0216C25.4838 13.1978 25.7447 13.3435 26.0429 13.4587C26.3411 13.5671 26.6528 13.6214 26.9781 13.6214C27.2966 13.6214 27.5914 13.5773 27.8625 13.4892C28.1403 13.3943 28.3673 13.252 28.5435 13.0623C28.7197 12.8725 28.8078 12.6455 28.8078 12.3812C28.8078 12.083 28.7062 11.8526 28.5029 11.69C28.3063 11.5205 28.059 11.3918 27.7608 11.3037C27.4626 11.2156 27.1645 11.1309 26.8663 11.0496C26.2021 10.9005 25.5922 10.6972 25.0365 10.4396C24.4876 10.1754 24.0505 9.8399 23.7252 9.43329C23.3999 9.01991 23.2373 8.51504 23.2373 7.91868C23.2373 7.26811 23.4135 6.70564 23.7659 6.23126C24.1183 5.75011 24.5791 5.38077 25.1484 5.12326C25.7244 4.86574 26.3377 4.73698 26.9883 4.73698C27.8015 4.73698 28.5469 4.90979 29.2246 5.2554C29.9023 5.60102 30.4207 6.07539 30.7799 6.67853L29.1026 7.67472C29.001 7.47141 28.8485 7.28844 28.6452 7.1258C28.4419 6.96315 28.2115 6.8344 27.9539 6.73952C27.6964 6.63787 27.4287 6.58027 27.1509 6.56671C26.8053 6.55316 26.4834 6.59382 26.1852 6.68869C25.8938 6.77679 25.66 6.9191 25.4838 7.11563C25.3076 7.31216 25.2195 7.5629 25.2195 7.86786C25.2195 8.16604 25.3246 8.38967 25.5346 8.53876C25.7447 8.68107 26.009 8.79628 26.3275 8.88437C26.6528 8.97247 26.9849 9.07074 27.3237 9.17916C27.9268 9.36891 28.4927 9.60271 29.0213 9.88056C29.5499 10.1516 29.9768 10.4871 30.3021 10.8869C30.6274 11.2867 30.7833 11.7747 30.7697 12.3507C30.7697 12.9877 30.5766 13.5468 30.1903 14.028C29.8108 14.5091 29.3161 14.8751 28.7062 15.1258C28.0963 15.3765 27.4491 15.4816 26.7646 15.4409Z" fill="#3F3D56"/>
<path d="M41.2016 15.2478H38.7619L36.2613 10.9377L34.6247 12.8895V15.2478H32.5103V0H34.6247V9.6061L38.4061 5.08259H41.1711L37.7047 9.21983L41.2016 15.2478Z" fill="#3F3D56"/>
<path d="M42.8145 5.08259H44.9289V15.2478H42.8145V5.08259ZM43.892 3.60864C43.5667 3.60864 43.2956 3.5036 43.0788 3.29352C42.8619 3.08344 42.7535 2.81915 42.7535 2.50064C42.7535 2.1889 42.8619 1.928 43.0788 1.71792C43.2956 1.50106 43.5633 1.39263 43.8818 1.39263C44.1936 1.39263 44.4579 1.50106 44.6747 1.71792C44.8916 1.928 45 2.1889 45 2.50064C45 2.81915 44.8916 3.08344 44.6747 3.29352C44.4646 3.5036 44.2037 3.60864 43.892 3.60864Z" fill="#3F3D56"/>
</svg>
